<?xml version="1.0" encoding="UTF-8"?>
<svg id="Layer_1" data-name="Layer 1" xmlns="http://www.w3.org/2000/svg" version="1.1" viewBox="0 0 346 300">
  <defs>
    <style>
      .cls-1, .cls-2 {
        font-size: 101.2px;
      }

      .cls-1, .cls-2, .cls-3 {
        font-family: ArialMT, Arial;
      }

      .cls-1, .cls-2, .cls-3, .cls-4, .cls-5 {
        isolation: isolate;
      }

      .cls-1, .cls-3 {
        fill: #231f20;
      }

      .cls-2 {
        fill: none;
        stroke: #ed1c24;
      }

      .cls-2, .cls-6 {
        stroke-miterlimit: 10;
      }

      .cls-3 {
        font-size: 78.5px;
      }

      .cls-7 {
        fill: #ed1c24;
      }

      .cls-7, .cls-8, .cls-9 {
        stroke-width: 0px;
      }

      .cls-6 {
        fill: #fff;
        stroke: #231f20;
        stroke-width: 4px;
      }

      .cls-8 {
        fill: #2e3192;
      }

      .cls-9 {
        fill: #010101;
        fill-rule: evenodd;
      }

      .cls-5 {
        opacity: .5;
      }
    </style>
  </defs>
  <g>
    <polyline class="cls-6" points="304 204.2 39 204.2 39 47.7"/>
    <g class="cls-4">
      <text class="cls-3" transform="translate(47.3 108.7) scale(1.9 1)"><tspan x="0" y="0">M</tspan></text>
    </g>
    <g class="cls-5">
      <text class="cls-1" transform="translate(173.4 193.1) scale(1.7 1)"><tspan x="0" y="0">L</tspan></text>
      <text class="cls-2" transform="translate(173.4 193.1) scale(1.7 1)"><tspan x="0" y="0">L</tspan></text>
    </g>
    <path class="cls-7" d="M147,110c3.9,0,3.9-4.9,0-4.9s-3.9,4.9,0,4.9h0Z"/>
    <path class="cls-7" d="M153.2,102.2c3.9,0,3.9-4.9,0-4.9s-3.9,4.9,0,4.9h0Z"/>
    <path class="cls-7" d="M143.3,88.1c3.9,0,3.9-4.9,0-4.9s-3.9,4.9,0,4.9h0Z"/>
    <path class="cls-7" d="M153.2,92.7c3.9,0,3.9-4.9,0-4.9s-3.9,4.9,0,4.9h0Z"/>
    <path class="cls-7" d="M147.7,99.2c3.9,0,3.9-4.9,0-4.9s-3.9,4.9,0,4.9h0Z"/>
    <path class="cls-7" d="M156.2,110.2c3.9,0,3.9-4.9,0-4.9s-3.9,4.9,0,4.9h0Z"/>
    <path class="cls-7" d="M150.7,78.6c3.9,0,3.9-4.9,0-4.9s-3.9,4.9,0,4.9h0Z"/>
    <path class="cls-7" d="M149.2,67.5c3.9,0,3.9-4.9,0-4.9s-3.9,4.9,0,4.9h0Z"/>
    <path class="cls-7" d="M141.8,61.4c3.9,0,3.9-4.9,0-4.9s-3.9,4.9,0,4.9h0Z"/>
    <path class="cls-7" d="M134.5,66.8c3.9,0,3.9-4.9,0-4.9s-3.9,4.9,0,4.9h0Z"/>
    <path class="cls-7" d="M127.9,76.2c3.9,0,3.9-4.9,0-4.9s-3.9,4.9,0,4.9h0Z"/>
    <path class="cls-7" d="M122.7,90.1c3.9,0,3.9-4.9,0-4.9s-3.9,4.9,0,4.9h0Z"/>
    <path class="cls-7" d="M111.7,92.5c3.9,0,3.9-4.9,0-4.9s-3.9,4.9,0,4.9h0Z"/>
    <path class="cls-7" d="M123.5,79.6c3.9,0,3.9-4.9,0-4.9s-3.9,4.9,0,4.9h0Z"/>
    <path class="cls-7" d="M120.5,85.1c3.9,0,3.9-4.9,0-4.9s-3.9,4.9,0,4.9h0Z"/>
    <path class="cls-7" d="M107.7,104.6c3.9,0,3.9-4.9,0-4.9s-3.9,4.9,0,4.9h0Z"/>
    <path class="cls-7" d="M113.2,94.4c3.9,0,3.9-4.9,0-4.9s-3.9,4.9,0,4.9h0Z"/>
    <path class="cls-7" d="M113.2,100.7c3.9,0,3.9-4.9,0-4.9s-3.9,4.9,0,4.9h0Z"/>
    <path class="cls-7" d="M97,100.9c3.9,0,3.9-4.9,0-4.9s-3.9,4.9,0,4.9h0Z"/>
    <path class="cls-7" d="M105.8,109.4c3.9,0,3.9-4.9,0-4.9s-3.9,4.9,0,4.9h0Z"/>
    <path class="cls-7" d="M97,106.6c3.9,0,3.9-4.9,0-4.9s-3.9,4.9,0,4.9h0Z"/>
    <path class="cls-7" d="M109.5,110.2c3.9,0,3.9-4.9,0-4.9s-3.9,4.9,0,4.9h0Z"/>
    <path class="cls-7" d="M97,95.7c3.9,0,3.9-4.9,0-4.9s-3.9,4.9,0,4.9h0Z"/>
    <path class="cls-7" d="M104.4,90.7c3.9,0,3.9-4.9,0-4.9s-3.9,4.9,0,4.9h0Z"/>
    <path class="cls-7" d="M90.4,90.7c3.9,0,3.9-4.9,0-4.9s-3.9,4.9,0,4.9h0Z"/>
    <path class="cls-7" d="M88.9,81.2c3.9,0,3.9-4.9,0-4.9s-3.9,4.9,0,4.9h0Z"/>
    <path class="cls-7" d="M90,75.5c3.9,0,3.9-4.9,0-4.9s-3.9,4.9,0,4.9h0Z"/>
    <path class="cls-7" d="M85.6,64.2c3.9,0,3.9-4.9,0-4.9s-3.9,4.9,0,4.9h0Z"/>
    <path class="cls-7" d="M79,61.2c3.9,0,3.9-4.9,0-4.9s-3.9,4.9,0,4.9h0Z"/>
    <path class="cls-7" d="M69.1,60.8c3.9,0,3.9-4.9,0-4.9s-3.9,4.9,0,4.9h0Z"/>
    <path class="cls-7" d="M66.1,69.7c3.9,0,3.9-4.9,0-4.9s-3.9,4.9,0,4.9h0Z"/>
    <path class="cls-7" d="M67.6,77c3.9,0,3.9-4.9,0-4.9s-3.9,4.9,0,4.9h0Z"/>
    <path class="cls-7" d="M65.4,92.5c3.9,0,3.9-4.9,0-4.9s-3.9,4.9,0,4.9h0Z"/>
    <path class="cls-7" d="M63.6,106.6c3.9,0,3.9-4.9,0-4.9s-3.9,4.9,0,4.9h0Z"/>
    <path class="cls-7" d="M57.3,110.2c3.9,0,3.9-4.9,0-4.9s-3.9,4.9,0,4.9h0Z"/>
    <path class="cls-7" d="M66.9,111.3c3.9,0,3.9-4.9,0-4.9s-3.9,4.9,0,4.9h0Z"/>
    <path class="cls-7" d="M66.9,99.6c3.9,0,3.9-4.9,0-4.9s-3.9,4.9,0,4.9h0Z"/>
    <path class="cls-7" d="M59.5,97.7c3.9,0,3.9-4.9,0-4.9s-3.9,4.9,0,4.9h0Z"/>
    <path class="cls-7" d="M67.2,80.9c3.9,0,3.9-4.9,0-4.9s-3.9,4.9,0,4.9h0Z"/>
    <path class="cls-7" d="M58.1,85.9c3.9,0,3.9-4.9,0-4.9s-3.9,4.9,0,4.9h0Z"/>
    <path class="cls-7" d="M71.3,87.5c3.9,0,3.9-4.9,0-4.9s-3.9,4.9,0,4.9h0Z"/>
    <path class="cls-7" d="M82.7,69.7c3.9,0,3.9-4.9,0-4.9s-3.9,4.9,0,4.9h0Z"/>
    <path class="cls-7" d="M81.9,76.4c3.9,0,3.9-4.9,0-4.9s-3.9,4.9,0,4.9h0Z"/>
    <path class="cls-7" d="M62.8,75.7c3.9,0,3.9-4.9,0-4.9s-3.9,4.9,0,4.9h0Z"/>
    <path class="cls-7" d="M87.5,87.5c3.9,0,3.9-4.9,0-4.9s-3.9,4.9,0,4.9h0Z"/>
    <path class="cls-7" d="M95.5,87.2c3.9,0,3.9-4.9,0-4.9s-3.9,4.9,0,4.9h0Z"/>
    <path class="cls-7" d="M96.7,91.6c3.9,0,3.9-4.9,0-4.9s-3.9,4.9,0,4.9h0Z"/>
    <path class="cls-7" d="M102.9,101.3c3.9,0,3.9-4.9,0-4.9s-3.9,4.9,0,4.9h0Z"/>
    <path class="cls-7" d="M158.8,105.3c3.9,0,3.9-4.9,0-4.9s-3.9,4.9,0,4.9h0Z"/>
    <path class="cls-7" d="M143.7,105.3c3.9,0,3.9-4.9,0-4.9s-3.9,4.9,0,4.9h0Z"/>
    <path class="cls-7" d="M142.2,76.2c3.9,0,3.9-4.9,0-4.9s-3.9,4.9,0,4.9h0Z"/>
    <path class="cls-7" d="M154.3,85.5c3.9,0,3.9-4.9,0-4.9s-3.9,4.9,0,4.9h0Z"/>
    <path class="cls-7" d="M148.1,83.3c3.9,0,3.9-4.9,0-4.9s-3.9,4.9,0,4.9h0Z"/>
    <path class="cls-8" d="M188.2,130c3.9,0,3.9-4.9,0-4.9s-3.9,4.9,0,4.9h0Z"/>
    <path class="cls-8" d="M193.7,137.4c3.9,0,3.9-4.9,0-4.9s-3.9,4.9,0,4.9h0Z"/>
    <path class="cls-8" d="M189.6,145.6c3.9,0,3.9-4.9,0-4.9s-3.9,4.9,0,4.9h0Z"/>
    <path class="cls-8" d="M197.3,159.7c3.9,0,3.9-4.9,0-4.9s-3.9,4.9,0,4.9h0Z"/>
    <path class="cls-8" d="M191.8,174.3c3.9,0,3.9-4.9,0-4.9s-3.9,4.9,0,4.9h0Z"/>
    <path class="cls-8" d="M191.8,189.7c3.9,0,3.9-4.9,0-4.9s-3.9,4.9,0,4.9h0Z"/>
    <path class="cls-8" d="M209.8,191.4c3.9,0,3.9-4.9,0-4.9s-3.9,4.9,0,4.9h0Z"/>
    <path class="cls-8" d="M227.5,192.3c3.9,0,3.9-4.9,0-4.9s-3.9,4.9,0,4.9h0Z"/>
    <path class="cls-8" d="M239.2,188.8c3.9,0,3.9-4.9,0-4.9s-3.9,4.9,0,4.9h0Z"/>
    <path class="cls-8" d="M242.5,192.3c3.9,0,3.9-4.9,0-4.9s-3.9,4.9,0,4.9h0Z"/>
    <path class="cls-8" d="M248.8,197.1c3.9,0,3.9-4.9,0-4.9s-3.9,4.9,0,4.9h0Z"/>
    <path class="cls-8" d="M250.6,187.9c3.9,0,3.9-4.9,0-4.9s-3.9,4.9,0,4.9h0Z"/>
    <path class="cls-8" d="M231.5,186.4c3.9,0,3.9-4.9,0-4.9s-3.9,4.9,0,4.9h0Z"/>
    <path class="cls-8" d="M217.6,188.6c3.9,0,3.9-4.9,0-4.9s-3.9,4.9,0,4.9h0Z"/>
    <path class="cls-8" d="M217.2,195.1c3.9,0,3.9-4.9,0-4.9s-3.9,4.9,0,4.9h0Z"/>
    <path class="cls-8" d="M234.5,194.9c3.9,0,3.9-4.9,0-4.9s-3.9,4.9,0,4.9h0Z"/>
    <path class="cls-8" d="M199.2,197.1c3.9,0,3.9-4.9,0-4.9s-3.9,4.9,0,4.9h0Z"/>
    <path class="cls-8" d="M185.6,192.9c3.9,0,3.9-4.9,0-4.9s-3.9,4.9,0,4.9h0Z"/>
    <path class="cls-8" d="M180.4,180.3c3.9,0,3.9-4.9,0-4.9s-3.9,4.9,0,4.9h0Z"/>
    <path class="cls-8" d="M196.2,184.9c3.9,0,3.9-4.9,0-4.9s-3.9,4.9,0,4.9h0Z"/>
    <path class="cls-8" d="M196.6,172.8c3.9,0,3.9-4.9,0-4.9s-3.9,4.9,0,4.9h0Z"/>
    <path class="cls-8" d="M190.7,169.9c3.9,0,3.9-4.9,0-4.9s-3.9,4.9,0,4.9h0Z"/>
    <path class="cls-8" d="M187.1,160.6c3.9,0,3.9-4.9,0-4.9s-3.9,4.9,0,4.9h0Z"/>
    <path class="cls-8" d="M195.9,154.3c3.9,0,3.9-4.9,0-4.9s-3.9,4.9,0,4.9h0Z"/>
    <path class="cls-8" d="M196.2,144.8c3.9,0,3.9-4.9,0-4.9s-3.9,4.9,0,4.9h0Z"/>
    <path class="cls-8" d="M187.8,152.4c3.9,0,3.9-4.9,0-4.9s-3.9,4.9,0,4.9h0Z"/>
    <path class="cls-8" d="M198.1,132c3.9,0,3.9-4.9,0-4.9s-3.9,4.9,0,4.9h0Z"/>
    <path class="cls-8" d="M192.2,130.6c3.9,0,3.9-4.9,0-4.9s-3.9,4.9,0,4.9h0Z"/>
    <path class="cls-8" d="M186.7,139.8c3.9,0,3.9-4.9,0-4.9s-3.9,4.9,0,4.9h0Z"/>
    <path class="cls-8" d="M197.3,138.2c3.9,0,3.9-4.9,0-4.9s-3.9,4.9,0,4.9h0Z"/>
    <path class="cls-8" d="M196.6,167.5c3.9,0,3.9-4.9,0-4.9s-3.9,4.9,0,4.9h0Z"/>
    <path class="cls-8" d="M191.1,165.6c3.9,0,3.9-4.9,0-4.9s-3.9,4.9,0,4.9h0Z"/>
    <path class="cls-8" d="M196.2,182.1c3.9,0,3.9-4.9,0-4.9s-3.9,4.9,0,4.9h0Z"/>
    <path class="cls-8" d="M188.5,180.8c3.9,0,3.9-4.9,0-4.9s-3.9,4.9,0,4.9h0Z"/>
  </g>
  <path class="cls-9" d="M0,50C0,22.4,23.2,0,51.9,0h242.2c28.6,0,51.9,22.4,51.9,50v150c0,27.6-23.2,50-51.9,50h-103.8v16.5h34.8c7.2,0,14.9,5.4,16.7,12.1,3.1,11.2-5.6,21.4-16.7,21.4h-104.3c-7.2,0-14.9-5.4-16.7-12.1-3.1-11.2,5.6-21.4,16.7-21.4h34.7v-16.5H51.9c-28.6,0-51.9-22.4-51.9-50V50ZM34.7,49.7v150.2c0,9.2,7.7,16.7,17.3,16.7h241.9c9.5,0,17.3-7.5,17.3-16.7V49.7c0-9.2-7.7-16.7-17.3-16.7H52c-9.5,0-17.3,7.5-17.3,16.7h0Z"/>
</svg>